<?xml version="1.0" encoding="utf-8"?>
<!-- Generator: Adobe Illustrator 24.2.3, SVG Export Plug-In . SVG Version: 6.00 Build 0)  -->
<svg version="1.1" id="Layer_1" xmlns="http://www.w3.org/2000/svg" xmlns:xlink="http://www.w3.org/1999/xlink" x="0px" y="0px"
	 viewBox="0 0 48 48" style="enable-background:new 0 0 48 48;" xml:space="preserve">
<style type="text/css">
	.st0{fill:#E73B25;}
	.st1{fill:#FFFFFF;}
	.st2{fill:#299BD7;}
	.st3{fill:#87AF4A;}
	.st4{fill:#E9357C;}
	.st5{fill:#E6E6E6;}
	.st6{fill:#666666;}
</style>
<g>
	<circle class="st4" cx="24" cy="24" r="24"/>
	<g>
		<path class="st1" d="M23.9,22.09l3.05,1.68c0.11,0.06,0.25,0.06,0.36-0.02c0.11-0.07,0.16-0.2,0.14-0.33l-0.52-3.44l2.54-2.38
			c0.1-0.09,0.13-0.22,0.09-0.35c-0.04-0.12-0.14-0.22-0.27-0.24l-3.43-0.57l-1.48-3.15c-0.06-0.12-0.17-0.19-0.3-0.2
			c-0.13-0.01-0.25,0.07-0.31,0.18l-1.6,3.09l-3.45,0.43c-0.13,0.02-0.24,0.1-0.28,0.23c-0.04,0.12-0.01,0.26,0.08,0.35l2.44,2.48
			l-0.66,3.42c-0.02,0.13,0.02,0.26,0.13,0.33l0,0c0.1,0.08,0.24,0.09,0.36,0.03L23.9,22.09z M19.49,17.4l2.95-0.37
			c0.11-0.01,0.21-0.08,0.26-0.18l1.37-2.64l1.26,2.69c0.05,0.1,0.14,0.17,0.25,0.19l2.93,0.49l-2.17,2.03
			c-0.08,0.08-0.12,0.19-0.1,0.3l0.44,2.94l-2.6-1.44c-0.1-0.05-0.22-0.06-0.32-0.01l-2.66,1.33l0.56-2.92
			c0.02-0.11-0.01-0.22-0.09-0.3L19.49,17.4z"/>
		<path class="st1" d="M24.4,28.8c8.93-3.62,11.97-10.21,11.01-15.13l0,0c-0.68-3.38-3.12-5.57-6.22-5.57
			c-1.62,0-3.39,0.63-5.12,1.82L24,9.97l-0.07-0.05c-1.75-1.25-3.49-1.88-5.15-1.88c-3.11,0-5.54,2.21-6.19,5.63
			c-0.95,4.98,2.08,11.59,11.01,15.13l0,0l0.02,0.01c0.25,0.1,0.52,0.1,0.76,0C24.39,28.81,24.4,28.8,24.4,28.8z M24.02,28.24
			l-0.02,0l-0.02,0c-0.05-0.01-0.11-0.02-0.16-0.04c-8.59-3.41-11.52-9.69-10.61-14.41c0.29-1.54,0.97-2.83,1.96-3.73
			c0.98-0.9,2.23-1.37,3.6-1.37c1.61,0,3.31,0.65,5.03,1.94c0.11,0.08,0.27,0.09,0.38,0c1.7-1.23,3.43-1.89,5.01-1.89
			c0.02,0,0.04,0,0.06,0c1.31,0,2.57,0.48,3.54,1.36c0.99,0.9,1.68,2.17,1.98,3.68c1.25,6.47-4.42,11.89-10.61,14.4
			C24.12,28.22,24.07,28.23,24.02,28.24z"/>
	</g>
	<g>
		<path class="st1" d="M12.39,38.69v-4.84h3.19v0.84h-2.24v1.14h1.91v0.84h-1.91v1.18h2.24v0.84H12.39z"/>
		<path class="st1" d="M19.37,38.69l-1.92-2.97v2.97H16.5v-4.84h0.84l1.92,2.97v-2.97h0.95v4.84H19.37z"/>
		<path class="st1" d="M23.91,38.69l-0.95-1.93h-0.68v1.93h-0.95v-4.84h1.9c0.99,0,1.57,0.67,1.57,1.48c0,0.68-0.41,1.1-0.88,1.27
			l1.08,2.09H23.91z M23.18,34.69h-0.89v1.28h0.89c0.41,0,0.69-0.27,0.69-0.64C23.86,34.95,23.59,34.69,23.18,34.69z"/>
		<path class="st1" d="M25.79,38.69v-4.84h0.95v4.84H25.79z"/>
		<path class="st1" d="M29.49,38.73c-0.56,0-0.97-0.18-1.3-0.51c-0.48-0.48-0.49-1.03-0.49-1.95s0.01-1.47,0.49-1.95
			c0.33-0.33,0.74-0.51,1.3-0.51c0.9,0,1.6,0.52,1.78,1.53H30.3c-0.1-0.39-0.34-0.69-0.81-0.69c-0.26,0-0.47,0.1-0.61,0.25
			c-0.18,0.2-0.24,0.44-0.24,1.37s0.06,1.16,0.24,1.37c0.14,0.16,0.35,0.25,0.61,0.25c0.47,0,0.72-0.29,0.82-0.69h0.96
			C31.09,38.21,30.39,38.73,29.49,38.73z"/>
		<path class="st1" d="M34.67,38.69v-2.03h-1.64v2.03h-0.95v-4.84h0.95v1.98h1.64v-1.98h0.95v4.84H34.67z"/>
	</g>
</g>
</svg>
