<?xml version="1.0" encoding="utf-8"?>
<!-- Generator: Adobe Illustrator 24.2.3, SVG Export Plug-In . SVG Version: 6.00 Build 0)  -->
<svg version="1.1" id="Layer_1" xmlns="http://www.w3.org/2000/svg" xmlns:xlink="http://www.w3.org/1999/xlink" x="0px" y="0px"
	 viewBox="0 0 48 48" style="enable-background:new 0 0 48 48;" xml:space="preserve">
<style type="text/css">
	.st0{fill:#E73B25;}
	.st1{fill:#FFFFFF;}
	.st2{fill:#299BD7;}
	.st3{fill:#87AF4A;}
	.st4{fill:#E9357C;}
	.st5{fill:#E6E6E6;}
	.st6{fill:#666666;}
</style>
<g>
	<circle class="st2" cx="24" cy="24" r="24"/>
	<g>
		<path class="st1" d="M25.86,9.4L25.86,9.4l-0.38-0.44C25,8.41,24.59,7.93,24.24,7.5l-0.02-0.03c-0.01-0.01-0.02-0.02-0.03-0.03
			C24.13,7.4,24.07,7.38,24,7.38c-0.01,0-0.02,0-0.03,0c-0.08,0.01-0.16,0.05-0.21,0.12C23.41,7.93,23,8.41,22.52,8.96L22.15,9.4
			c-2.72,3.15-6.43,7.46-6.43,11.02c0,2.21,0.86,4.29,2.43,5.86c1.59,1.56,3.67,2.43,5.86,2.43c2.21,0,4.29-0.86,5.86-2.43
			c1.57-1.57,2.43-3.65,2.43-5.86C32.28,16.85,28.57,12.55,25.86,9.4z M29.43,25.82L29.43,25.82c-1.46,1.46-3.39,2.27-5.43,2.27
			c-2.03,0-3.96-0.8-5.43-2.25c-1.45-1.45-2.25-3.38-2.25-5.43c0-3.34,3.64-7.55,6.29-10.62c0.16-0.19,0.32-0.38,0.48-0.57
			c0.26-0.3,0.5-0.59,0.73-0.87L24,8.15l0.17,0.21c0.37,0.46,0.79,0.93,1.21,1.42l0.04,0.04c2.64,3.06,6.26,7.24,6.26,10.58
			C31.67,22.42,30.88,24.35,29.43,25.82z"/>
		<path class="st1" d="M24.04,25.98c0.17,0,0.29-0.13,0.29-0.29c0-0.17-0.13-0.29-0.29-0.29c-1.29,0-2.5-0.5-3.41-1.4
			c-0.9-0.9-1.4-2.12-1.4-3.41c0-0.17-0.13-0.29-0.29-0.29c-0.17,0-0.29,0.13-0.29,0.29c0,1.43,0.56,2.8,1.58,3.84
			C21.22,25.41,22.61,25.98,24.04,25.98z"/>
	</g>
	<g>
		<path class="st1" d="M17.59,38.69H16.8l-0.89-2.94l-0.89,2.94h-0.79l-1.29-4.84h0.99l0.75,3.05l0.88-3.05h0.71l0.88,3.05
			l0.76-3.05h0.99L17.59,38.69z"/>
		<path class="st1" d="M22.11,38.69l-0.29-0.86h-1.72l-0.29,0.86h-0.99l1.76-4.84h0.74l1.77,4.84H22.11z M20.98,35.27l-0.61,1.76
			h1.2L20.98,35.27z"/>
		<path class="st1" d="M25.07,34.69v4h-0.95v-4h-1.26v-0.84h3.48v0.84H25.07z"/>
		<path class="st1" d="M27.11,38.69v-4.84h3.19v0.84h-2.24v1.14h1.91v0.84h-1.91v1.18h2.24v0.84H27.11z"/>
		<path class="st1" d="M33.79,38.69l-0.95-1.93h-0.68v1.93h-0.95v-4.84h1.9c0.99,0,1.57,0.67,1.57,1.48c0,0.68-0.41,1.1-0.88,1.27
			l1.08,2.09H33.79z M33.06,34.69h-0.89v1.28h0.89c0.41,0,0.69-0.27,0.69-0.64C33.74,34.95,33.47,34.69,33.06,34.69z"/>
	</g>
</g>
</svg>
