<?xml version="1.0" encoding="utf-8"?>
<!-- Generator: Adobe Illustrator 24.2.3, SVG Export Plug-In . SVG Version: 6.00 Build 0)  -->
<svg version="1.1" id="Layer_1" xmlns="http://www.w3.org/2000/svg" xmlns:xlink="http://www.w3.org/1999/xlink" x="0px" y="0px"
	 viewBox="0 0 48 48" style="enable-background:new 0 0 48 48;" xml:space="preserve">
<style type="text/css">
	.st0{fill:#E73B25;}
	.st1{fill:#FFFFFF;}
	.st2{fill:#299BD7;}
	.st3{fill:#87AF4A;}
	.st4{fill:#E9357C;}
	.st5{fill:#E6E6E6;}
	.st6{fill:#666666;}
</style>
<g>
	<circle class="st3" cx="24" cy="24" r="24"/>
	<g>
		<path class="st1" d="M27.48,28.97c-1.24,0-2.45-0.37-3.48-1.07c-1.02,0.7-2.24,1.07-3.48,1.07c-3.52,0-6.2-8.32-6.2-11.72
			c0-3.42,2.78-6.19,6.2-6.2c1.24,0,2.45,0.37,3.48,1.07c1.02-0.7,2.24-1.07,3.48-1.07c3.42,0,6.2,2.78,6.2,6.2
			C33.68,20.66,30.99,28.97,27.48,28.97L27.48,28.97z M24,27.17c0.07,0,0.14,0.02,0.2,0.07c0.95,0.7,2.1,1.08,3.28,1.08
			c1.26,0,2.67-1.56,3.85-4.28c0.98-2.25,1.69-5.1,1.69-6.78c0-3.06-2.48-5.54-5.54-5.54c-1.18,0-2.33,0.37-3.28,1.08
			c-0.12,0.09-0.28,0.09-0.39,0c-0.95-0.7-2.1-1.08-3.28-1.08c-3.06,0-5.54,2.48-5.54,5.54c0,3.45,2.68,11.06,5.54,11.06
			c1.18,0,2.33-0.37,3.28-1.08C23.86,27.2,23.93,27.17,24,27.17L24,27.17z"/>
		<path class="st1" d="M24,12.86c-0.18,0-0.33-0.15-0.33-0.33c0-0.04-0.02-3.56-2.74-4.68c-0.17-0.07-0.25-0.26-0.18-0.43
			s0.26-0.25,0.43-0.18c3.13,1.29,3.14,5.13,3.14,5.29C24.33,12.71,24.18,12.86,24,12.86z"/>
		<path class="st1" d="M25.12,10.84c-0.54,0-1.09-0.08-1.61-0.24c-0.11-0.04-0.19-0.13-0.22-0.24c-0.16-0.8,0.06-1.63,0.58-2.26
			c0.46-0.57,1.16-0.89,1.89-0.86c0.73,0.05,1.4-0.37,1.67-1.05c0.04-0.12,0.16-0.21,0.29-0.22c0.13-0.01,0.26,0.06,0.31,0.18
			c0.49,1.15,0.35,2.47-0.37,3.49C27.03,10.6,26,10.84,25.12,10.84z M23.9,10.02c0.59,0.15,2.41,0.48,3.2-0.75
			c0.44-0.64,0.63-1.41,0.53-2.18c-0.48,0.54-1.18,0.84-1.9,0.8c-0.53-0.03-1.03,0.21-1.36,0.62C24.03,8.94,23.86,9.48,23.9,10.02
			L23.9,10.02z"/>
		<path class="st1" d="M17.21,15.77c-0.18,0-0.33-0.15-0.33-0.33c0-0.06,0.01-0.11,0.04-0.16c0.97-1.77,3.09-2.58,4.99-1.89
			c0.17,0.06,0.26,0.25,0.21,0.42s-0.25,0.26-0.42,0.21c0,0-0.01,0-0.01,0c-1.6-0.57-3.38,0.1-4.19,1.59
			C17.44,15.7,17.33,15.77,17.21,15.77L17.21,15.77z"/>
	</g>
	<g>
		<path class="st1" d="M12.94,38.69l-1.92-2.97v2.97h-0.95v-4.84h0.84l1.92,2.97v-2.97h0.95v4.84H12.94z"/>
		<path class="st1" d="M17.84,38.22c-0.33,0.33-0.73,0.51-1.29,0.51s-0.97-0.18-1.3-0.51c-0.48-0.48-0.49-1.03-0.49-1.95
			s0.01-1.47,0.49-1.95c0.33-0.33,0.74-0.51,1.3-0.51s0.97,0.18,1.29,0.51c0.48,0.48,0.5,1.03,0.5,1.95S18.32,37.74,17.84,38.22z
			 M17.15,34.91c-0.14-0.16-0.35-0.26-0.61-0.26c-0.26,0-0.47,0.1-0.61,0.26c-0.18,0.2-0.23,0.44-0.23,1.36s0.05,1.15,0.23,1.35
			c0.14,0.16,0.35,0.27,0.61,0.27c0.26,0,0.47-0.11,0.61-0.27c0.18-0.2,0.24-0.43,0.24-1.35S17.33,35.11,17.15,34.91z"/>
		<path class="st1" d="M21.01,38.73c-0.99,0-1.78-0.67-1.78-1.7v-3.18h0.95V37c0,0.56,0.33,0.89,0.84,0.89s0.84-0.33,0.84-0.89
			v-3.15h0.94v3.18C22.79,38.06,22,38.73,21.01,38.73z"/>
		<path class="st1" d="M26.41,38.69l-0.95-1.93h-0.68v1.93h-0.95v-4.84h1.9c0.99,0,1.57,0.67,1.57,1.48c0,0.68-0.41,1.1-0.88,1.27
			l1.08,2.09H26.41z M25.68,34.69h-0.89v1.28h0.89c0.41,0,0.69-0.27,0.69-0.64C26.37,34.95,26.09,34.69,25.68,34.69z"/>
		<path class="st1" d="M28.29,38.69v-4.84h0.95v4.84H28.29z"/>
		<path class="st1" d="M31.7,38.73c-0.73,0-1.29-0.16-1.77-0.64l0.61-0.61c0.31,0.31,0.72,0.41,1.16,0.41
			c0.56,0,0.86-0.22,0.86-0.61c0-0.16-0.05-0.3-0.15-0.4c-0.1-0.09-0.19-0.13-0.44-0.16l-0.58-0.09c-0.43-0.06-0.72-0.19-0.94-0.4
			c-0.23-0.22-0.35-0.54-0.35-0.95c0-0.86,0.64-1.47,1.69-1.47c0.67,0,1.15,0.16,1.56,0.56l-0.6,0.59c-0.3-0.29-0.67-0.33-0.99-0.33
			c-0.5,0-0.74,0.28-0.74,0.61c0,0.13,0.03,0.25,0.14,0.35c0.1,0.09,0.24,0.16,0.44,0.18l0.58,0.09c0.44,0.06,0.71,0.18,0.92,0.38
			c0.26,0.24,0.37,0.59,0.37,1.02C33.5,38.2,32.72,38.73,31.7,38.73z"/>
		<path class="st1" d="M36.97,38.69v-2.03h-1.64v2.03h-0.95v-4.84h0.95v1.98h1.64v-1.98h0.95v4.84H36.97z"/>
	</g>
</g>
</svg>
