<?xml version="1.0" encoding="utf-8"?>
<!-- Generator: Adobe Illustrator 24.2.3, SVG Export Plug-In . SVG Version: 6.00 Build 0)  -->
<svg version="1.1" id="Layer_1" xmlns="http://www.w3.org/2000/svg" xmlns:xlink="http://www.w3.org/1999/xlink" x="0px" y="0px"
	 viewBox="0 0 48 48" style="enable-background:new 0 0 48 48;" xml:space="preserve">
<style type="text/css">
	.st0{fill:#FFFFFF;}
	.st1{fill:#FFFFFF;}
	.st2{fill:#FFFFFF;}
	.st3{fill:#FFFFFF;}
	.st4{fill:#FFFFFF;}
	.st5{fill:#FFFFFF;}
	.st6{fill:#FFFFFF;}
</style>
<path id="Path_135_3_" d="M36.95,36.97c0.8-0.81,0.8-2.11,0-2.91l-10.08-10.1l10.1-10.1c0.74-0.87,0.64-2.17-0.23-2.91
	c-0.77-0.66-1.91-0.66-2.69,0l-10.1,10.1l-10.1-10.1c-0.87-0.74-2.17-0.64-2.91,0.23c-0.66,0.77-0.66,1.91,0,2.69l10.1,10.1
	l-10.1,10.1c-0.74,0.87-0.64,2.17,0.23,2.91c0.77,0.66,1.91,0.66,2.69,0l10.1-10.1l10.1,10.1C34.86,37.76,36.14,37.76,36.95,36.97z"
	/>
</svg>
