<?xml version="1.0" encoding="utf-8"?>
<!-- Generator: Adobe Illustrator 24.2.3, SVG Export Plug-In . SVG Version: 6.00 Build 0)  -->
<svg version="1.1" id="Layer_1" xmlns="http://www.w3.org/2000/svg" xmlns:xlink="http://www.w3.org/1999/xlink" x="0px" y="0px"
	 viewBox="0 0 48 48" style="enable-background:new 0 0 48 48;" xml:space="preserve">
<style type="text/css">
	.st0{fill:#E73B25;}
	.st1{fill:#FFFFFF;}
	.st2{fill:#299BD7;}
	.st3{fill:#87AF4A;}
	.st4{fill:#E9357C;}
	.st5{fill:#E6E6E6;}
	.st6{fill:#666666;}
</style>
<g>
	<circle class="st0" cx="24" cy="24" r="24"/>
	<g>
		<path class="st1" d="M11.25,17.44c0,0.21,0.17,0.38,0.38,0.38H32.7c0.03,0,0.05,0,0.08-0.01l0.03,0c2.17-0.06,3.94-1.87,3.94-4.04
			c0-2.23-1.81-4.04-4.04-4.04c-2.23,0-4.04,1.81-4.04,4.04c0,0.21,0.17,0.38,0.38,0.38c0.21,0,0.38-0.17,0.38-0.38
			c0-1.81,1.47-3.28,3.28-3.28c1.81,0,3.28,1.47,3.28,3.28c0,1.81-1.47,3.28-3.28,3.28c-0.02,0-0.05,0-0.07,0.01l-0.03,0H11.63
			C11.42,17.05,11.25,17.23,11.25,17.44z"/>
		<path class="st1" d="M25.9,10.1c0-2.23-1.81-4.04-4.04-4.04c-2.23,0-4.04,1.81-4.04,4.04c0,0.21,0.17,0.38,0.38,0.38
			c0.21,0,0.38-0.17,0.38-0.38c0-1.81,1.47-3.28,3.28-3.28s3.28,1.47,3.28,3.28s-1.47,3.28-3.28,3.28c-0.02,0-0.05,0-0.07,0.01
			l-0.03,0H11.63c-0.21,0-0.38,0.17-0.38,0.38c0,0.21,0.17,0.38,0.38,0.38h10.22c0.03,0,0.05,0,0.08-0.01l0.03,0
			C24.13,14.09,25.9,12.27,25.9,10.1z"/>
		<path class="st1" d="M28.34,28.93c2.23,0,4.04-1.81,4.04-4.04s-1.81-4.04-4.04-4.04h-16.7c-0.21,0-0.38,0.17-0.38,0.38
			s0.17,0.38,0.38,0.38h16.7c1.81,0,3.28,1.47,3.28,3.28s-1.47,3.28-3.28,3.28c-1.81,0-3.28-1.47-3.28-3.28
			c0-0.21-0.17-0.38-0.38-0.38s-0.38,0.17-0.38,0.38C24.29,27.12,26.11,28.93,28.34,28.93z"/>
	</g>
	<g>
		<path class="st1" d="M21.89,38.69l-0.29-0.86h-1.72l-0.29,0.86H18.6l1.76-4.84h0.74l1.77,4.84H21.89z M20.76,35.27l-0.61,1.76h1.2
			L20.76,35.27z"/>
		<path class="st1" d="M23.47,38.69v-4.84h0.95v4.84H23.47z"/>
		<path class="st1" d="M28.12,38.69l-0.95-1.93h-0.68v1.93h-0.95v-4.84h1.9c0.99,0,1.57,0.67,1.57,1.48c0,0.68-0.41,1.1-0.88,1.27
			l1.08,2.09H28.12z M27.38,34.69h-0.89v1.28h0.89c0.41,0,0.69-0.27,0.69-0.64C28.07,34.95,27.8,34.69,27.38,34.69z"/>
	</g>
</g>
</svg>
